<svg width="1025" height="1025" viewBox="0 0 1025 1025" fill="none" xmlns="http://www.w3.org/2000/svg">
<ellipse cx="512" cy="512.5" rx="502" ry="501.5" fill="#0C0C1F"/>
<path d="M484.326 0.761915C766.768 -14.5268 1008.09 202.117 1023.25 484.568C1038.41 767.019 821.65 1008.24 539.191 1023.26C256.921 1038.28 15.8941 821.695 0.748684 539.433C-14.3968 257.172 202.071 16.0415 484.326 0.761915ZM191.417 734.291C190.537 715.4 191.301 695.957 191 676.984C183.794 675.579 153.402 670.418 149.179 665.338L147.565 659.808C142.089 659.371 141.252 666.255 136.157 661.396C135.134 655.498 134.369 631.794 135.903 626.61C141.431 623.847 143.779 627.087 147.964 630.85C151.819 621.363 152.49 513.936 152.187 497.044L151.38 498.083C149.095 500.986 148.566 502.214 145.368 503.608C142.066 503.666 143.504 504.159 140.931 502.022C137.567 494.546 138.421 476.757 139.221 467.988C139.341 466.686 140.164 466.692 141.582 465.983C145.377 466.634 147.788 469.044 150.608 471.703C151.228 469.484 151.099 469.009 151.106 466.67C155.338 461.153 185.29 458.208 193.444 457.269C266.014 448.906 340.436 453.826 411.761 469.21C420.193 471.031 432.031 476.086 440.02 475.832L440.087 495.982C502.5 475.424 560.627 481.625 618.866 511.127L620.313 511.864C623.382 513.88 626.481 515.852 629.611 517.776C631.939 519.178 634.599 520.641 637.344 519.952C635.828 515.446 626.062 512.186 621.792 510.382C614.077 503.983 614.271 496.381 607.827 489.721L607.002 490.72C604.569 493.627 600.961 498.471 596.573 496.68C594.711 492.056 586.23 468.079 586.243 464.36C590.024 460.273 595.474 462.745 600.578 463.929C602.224 457.733 576.775 372.764 572.572 364.035C569.576 368.795 566.509 375.71 560.099 372.815C556.181 368.298 551.136 349.046 548.321 341.483C551.427 339.996 554.808 337.964 558.146 337.878L562.966 341.621L563.959 341.307C566.005 335.064 566.927 321.054 568.405 317.422C579.732 292.527 610.659 270.775 634.515 259.486C683.819 236.156 747.607 217.407 801.112 234.928C810.426 237.98 816.745 241.557 820.331 250.779L820.997 252.451C824.696 248.743 830.079 242.855 834.331 240.4C838.639 242.145 845.966 269.232 847.524 274.968C840.478 275.411 836.726 275.387 829.669 274.985C835.707 294.785 843.999 317.011 850.838 336.685C855.679 350.611 864.751 378.829 871.681 390.312C874.228 384.932 876.204 377.946 883.31 380.537C888.782 386.056 893.207 402.148 895.95 410.15C892.969 411.664 889.618 413.794 886.395 413.899C884.94 412.917 883.521 411.968 881.923 411.232L881.02 411.948C881.972 426.666 884.079 438.432 872.147 450.143C825.682 495.744 755.507 520.84 691.112 523.644C667.597 524.668 675.589 529.607 667.753 546.595C672.766 551.853 678.193 557.256 682.454 563.095C682.76 558.413 682.976 552.664 683.587 548.096L691.754 553.193L691.73 534.818C755.345 523.181 814.812 518.041 879.548 523.76C899.906 525.557 918.131 528.488 938.182 531.439C938.123 545.378 941.138 542.836 943.876 555.777C944.246 557.528 943.557 568.474 943.341 571.031L929.49 571.02L929.414 588.008C932.776 587.522 934.108 586.913 937.241 587.682C938.909 593.107 937.227 609.153 936.654 615.635C923.77 616.761 908.979 621.363 895.921 623.601C876.679 626.897 858.143 628.358 838.673 628.958L838.873 661.059L847.467 662.678C847.681 673.923 850.107 681.878 839.194 687.754C838.694 705.415 838.57 723.086 838.822 740.753C863.764 744.935 870.147 753.62 882.569 773.592C951.624 674.893 978.983 552.952 958.715 434.214C937.874 315.46 870.794 209.817 772.181 140.449C672.13 70.328 555.74 41.9917 434.928 63.2802C315.982 84.5542 210.462 152.456 141.817 251.898C71.8324 352.304 45.0645 476.594 67.5098 596.907C77.408 652.33 107.258 732.512 144.345 775.557C152.796 755.574 161.673 746.073 182.15 737.825C185.214 736.583 188.304 735.404 191.417 734.291ZM818.506 629.836C781.613 629.116 753.714 628.659 717.435 622.393C724.906 640.731 730.168 659.895 733.11 679.477C757.677 689.04 757.906 706.23 734.8 718.096C732.43 743.836 729.664 759.139 720.922 783.711C726.695 790.433 736.583 801.428 739.281 809.741C741.386 816.218 737.85 833.864 742.358 839.595C746.522 838.864 757.991 813.168 760.569 807.839C775.822 778.145 785.482 754.958 817.9 742.088C817.925 735.234 819.537 690.265 815.802 686.956C815.568 686.75 813.929 685.885 813.721 685.771C811.082 684.309 810.062 683.248 809.253 680.24C808.245 676.487 808.542 668.591 811.093 665.392C812.45 663.693 814.479 662.727 815.561 660.778C819.885 652.987 818.455 638.568 818.506 629.836ZM281.708 823.871C281.575 809.275 283.698 801.832 294.38 790.873C296.479 788.739 298.61 786.638 300.771 784.567C296.335 764.323 291.85 740.034 290.92 719.255C277.158 715.365 265.581 709.331 271.766 692.701C272.495 690.791 273.278 688.904 274.116 687.038C258.552 683.533 229.184 680.877 212.424 679.356L212.446 738.373C220.549 742.318 230.224 747.671 235.6 755.052C254.708 781.298 264.428 814.512 280.623 842.706L286.496 835.651C284.179 830.973 283.153 829.03 281.708 823.871ZM754.125 860.519C758.745 867.135 762.121 872.399 766.221 879.349L769.829 885.407C785.825 874.965 804.889 861.388 818.072 847.704C817.566 826.21 819.354 784.95 816.892 766.051L815.436 765.405C790.012 783.775 779.392 817.623 763.421 843.763C760.402 848.706 756.685 855.306 754.125 860.519ZM159.329 795.876C165.597 804.885 170.571 810.811 177.675 819.151C181.958 823.82 186.271 828.464 190.61 833.08C191.022 819.494 192.744 770.401 190.023 760.836L189.332 760.194C175.74 765.608 169.496 771.22 163.543 785.082C162.003 788.625 160.598 792.226 159.329 795.876ZM853.281 811.494C859.36 804.124 864.49 797.684 870.19 789.983C863.331 778.506 854.368 767.266 840.739 763.726C840.088 763.56 839.435 763.405 838.781 763.262C838.632 782.346 839.315 810.475 838.235 828.785L853.281 811.494ZM212.662 853.388C226.366 865.538 239.314 875.908 254.891 885.713L260.988 876.595C263.36 872.796 267.514 866.512 269.409 862.76C261.293 851.361 257.81 845.122 251.54 833.187C243.658 818.181 227.305 768.823 212.843 763.144C213.422 790.273 213.414 826.051 212.662 853.388ZM281.597 904.42C380.801 965.409 500.159 984.528 613.45 957.575C658.665 946.774 717.517 923.474 755.237 895.76C751.173 889.242 747.164 882.691 743.21 876.107C735.107 889.844 726.922 902.128 711.784 908.644C707.546 903.196 706.818 902.021 703.751 895.531C712.834 881.637 723.649 870.82 732.844 858.062L724.168 847.983C704.188 846.897 708.62 842.371 696.321 833.329C686.441 843.983 671.58 859.268 663.533 870.615C666.195 876.281 667.087 878.217 668.77 884.333C665.133 898.228 661.135 904.752 646.618 908.483C639.656 906.793 635.679 906.073 629.348 902.617C617.252 909.798 606.487 916.347 593.554 922.046C552.295 940.188 506.148 943.981 462.481 932.816C435.051 925.917 415.435 915.872 391.602 901.537C379.786 909.901 366.078 909.194 357.798 896.416C354.293 891.087 353.214 884.52 354.833 878.35C355.87 874.441 358.006 871.055 360.218 867.725C349.732 856.586 338.275 845.606 327.333 834.85C320.903 843.064 315.656 846.743 304.739 848.09C303.114 848.284 301.488 848.443 299.856 848.568C297.19 852.066 294.153 855.866 291.644 859.426C296.858 866.046 333.541 909.067 302.164 903.04C296.597 901.97 284.498 883.831 280.551 878.299C277.22 883.668 272.598 890.689 269.793 896.148C273.742 898.886 277.677 901.642 281.597 904.42ZM530.142 908.329C638.193 897.397 716.957 800.992 706.125 692.933C695.293 584.871 598.961 506.018 490.89 516.752C382.68 527.499 303.701 623.983 314.548 732.184C325.394 840.384 421.951 919.273 530.142 908.329ZM800.392 406.962C749.966 412.492 704.743 425.036 661.902 453.496C601.655 493.518 642.956 510.592 693.532 505.635C749.723 500.094 813.039 479.79 853.462 439.197C856.919 435.725 860.229 428.662 859.5 423.779C856.531 403.918 814.056 405.744 800.392 406.962Z" fill="#FEFEFE"/>
<path d="M307.882 265C315.006 265.363 323.759 265.224 331.019 265.268L330.849 297.075C359.287 297.297 482.922 301.774 499 322.768C498.884 325.651 497.802 327.103 495.418 329.074C473.943 346.844 363.666 352.135 332.161 351.212C318.482 384.46 291.373 387.46 256.407 395.34C240.192 398.849 224.036 402.563 207.939 406.481C201.382 431.777 180.418 437.087 159.207 419.531C129.239 425.599 99.6975 433.286 69.8766 439.889L54 444C55.7104 437.243 57.7587 431.164 59.9708 424.521C67.7515 421.68 84.5092 418.211 93.2291 416.245L151.129 403.236C161.261 380.879 178.842 369.82 201.564 389.135C224.017 384.748 246.13 379.407 268.197 373.715C286.084 369.102 298.716 365.436 309.905 351.572C284.042 350.429 146.036 348.636 135.813 325.337C136.049 323.157 136.433 321.762 138.172 320.108C158.338 300.942 276.693 297.636 307.948 296.523L307.882 265Z" fill="#FEFEFE"/>
<path d="M352 663C360.33 663 368.658 663.085 376.984 663.253C382.495 681.673 382.397 695.711 390.894 716.809C416.388 780.105 459.601 817.451 520 844.664C518.108 851.149 515.989 857.339 513.82 863.737C512.264 866.667 513.378 865.705 510.629 867C506.011 866.52 504.176 864.107 500.13 862.583C421.302 832.899 360.111 746.277 352 663Z" fill="#FEFEFE"/>
<path d="M433.969 649C436.096 650.67 437.853 659.615 438.589 662.653C442.678 679.531 447.495 693.031 455.09 708.648C472.488 744.421 499.36 776.329 534.836 794.941C547.846 801.763 561.186 806.104 575 810.854L571.141 835C566.617 833.728 562.099 832.434 557.587 831.113C474.648 803.401 428.804 737.011 410 653.824C418.233 651.989 425.62 650.421 433.969 649Z" fill="#FEFEFE"/>
<path d="M621.477 510C625.739 511.851 635.487 515.196 637 519.82C634.26 520.527 631.605 519.025 629.281 517.587C626.157 515.613 623.064 513.589 620 511.52L621.477 510Z" fill="black"/>
</svg>
